<svg xmlns="http://www.w3.org/2000/svg" viewBox="0 0 48 48"><path fill="#FFC107" d="M43.611 20.083H42V20H24v8h11.303c-1.649 4.657-6.083 8-11.303 8c-6.627 0-12-5.373-12-12s5.373-12 12-12c3.059 0 5.842 1.154 8.065 3.09l5.66-5.66C34.046 6.053 29.066 4 24 4C12.955 4 4 12.955 4 24s8.955 20 20 20s20-8.955 20-20c0-1.341-.138-2.65-.389-3.917z"/><path fill="#FF3D00" d="M6.306 14.691L1.693 9.079C3.265 6.036 8.306 4 12 4c5.034 0 9.098 1.83 11.968 4.686L18.455 14.39A13.945 13.945 0 0 0 12 10.083c-4.329 0-8.243 2.531-10.129 6.313L6.306 14.691z"/><path fill="#4CAF50" d="M24 44c5.166 0 9.86-1.972 13.409-5.192L31.672 33.6c-2.651 1.958-5.968 3.107-9.672 3.107c-5.27 0-9.873-3.601-11.45-8.583L5.12 34.73C8.454 40.767 15.996 44 24 44z"/><path fill="#1976D2" d="M43.611 20.083H42V20H24v8h11.303c-.792 2.237-2.231 4.159-4.087 5.571c0 0-1.844 1.332-2.908 2.122l5.66 5.66C34.046 37.947 39.066 40 44 40c1.341 0 2.65-.138 3.917-.389L43.611 20.083z"/></svg>